<svg xmlns="http://www.w3.org/2000/svg" version="1.1" xmlns:xlink="http://www.w3.org/1999/xlink" xmlns:svgjs="http://svgjs.dev/svgjs" width="1440" height="1000" preserveAspectRatio="none" viewBox="0 0 1440 1000"><g mask="url(&quot;#SvgjsMask1603&quot;)" fill="none"><rect width="1440" height="1000" x="0" y="0" fill="url(&quot;#SvgjsLinearGradient1604&quot;)"></rect><use xlink:href="#SvgjsSymbol1611" x="0" y="0"></use><use xlink:href="#SvgjsSymbol1611" x="0" y="720"></use><use xlink:href="#SvgjsSymbol1611" x="720" y="0"></use><use xlink:href="#SvgjsSymbol1611" x="720" y="720"></use></g><defs><mask id="SvgjsMask1603"><rect width="1440" height="1000" fill="#ffffff"></rect></mask><linearGradient x1="7.64%" y1="-11%" x2="92.36%" y2="111%" gradientUnits="userSpaceOnUse" id="SvgjsLinearGradient1604"><stop stop-color="#0e2a47" offset="0"></stop><stop stop-color="rgba(48, 109, 188, 1)" offset="1"></stop></linearGradient><path d="M-1 0 a1 1 0 1 0 2 0 a1 1 0 1 0 -2 0z" id="SvgjsPath1607"></path><path d="M-3 0 a3 3 0 1 0 6 0 a3 3 0 1 0 -6 0z" id="SvgjsPath1609"></path><path d="M-5 0 a5 5 0 1 0 10 0 a5 5 0 1 0 -10 0z" id="SvgjsPath1605"></path><path d="M2 -2 L-2 2z" id="SvgjsPath1608"></path><path d="M6 -6 L-6 6z" id="SvgjsPath1606"></path><path d="M30 -30 L-30 30z" id="SvgjsPath1610"></path></defs><symbol id="SvgjsSymbol1611"><use xlink:href="#SvgjsPath1605" x="30" y="30" stroke="rgba(92, 161, 235, 1)"></use><use xlink:href="#SvgjsPath1606" x="30" y="90" stroke="rgba(92, 161, 235, 1)"></use><use xlink:href="#SvgjsPath1607" x="30" y="150" stroke="rgba(92, 161, 235, 1)"></use><use xlink:href="#SvgjsPath1606" x="30" y="210" stroke="rgba(92, 161, 235, 1)"></use><use xlink:href="#SvgjsPath1605" x="30" y="270" stroke="rgba(92, 161, 235, 1)"></use><use xlink:href="#SvgjsPath1605" x="30" y="330" stroke="rgba(92, 161, 235, 1)"></use><use xlink:href="#SvgjsPath1606" x="30" y="390" stroke="rgba(92, 161, 235, 1)"></use><use xlink:href="#SvgjsPath1606" x="30" y="450" stroke="rgba(92, 161, 235, 1)"></use><use xlink:href="#SvgjsPath1608" x="30" y="510" stroke="rgba(92, 161, 235, 1)"></use><use xlink:href="#SvgjsPath1606" x="30" y="570" stroke="rgba(92, 161, 235, 1)"></use><use xlink:href="#SvgjsPath1608" x="30" y="630" stroke="rgba(92, 161, 235, 1)"></use><use xlink:href="#SvgjsPath1605" x="30" y="690" stroke="rgba(92, 161, 235, 1)"></use><use xlink:href="#SvgjsPath1605" x="90" y="30" stroke="rgba(92, 161, 235, 1)"></use><use xlink:href="#SvgjsPath1605" x="90" y="90" stroke="rgba(92, 161, 235, 1)"></use><use xlink:href="#SvgjsPath1609" x="90" y="150" stroke="rgba(92, 161, 235, 1)"></use><use xlink:href="#SvgjsPath1608" x="90" y="210" stroke="rgba(92, 161, 235, 1)"></use><use xlink:href="#SvgjsPath1607" x="90" y="270" stroke="rgba(92, 161, 235, 1)"></use><use xlink:href="#SvgjsPath1608" x="90" y="330" stroke="rgba(92, 161, 235, 1)"></use><use xlink:href="#SvgjsPath1606" x="90" y="390" stroke="rgba(92, 161, 235, 1)"></use><use xlink:href="#SvgjsPath1608" x="90" y="450" stroke="rgba(92, 161, 235, 1)"></use><use xlink:href="#SvgjsPath1609" x="90" y="510" stroke="rgba(92, 161, 235, 1)"></use><use xlink:href="#SvgjsPath1608" x="90" y="570" stroke="rgba(92, 161, 235, 1)"></use><use xlink:href="#SvgjsPath1605" x="90" y="630" stroke="rgba(92, 161, 235, 1)"></use><use xlink:href="#SvgjsPath1607" x="90" y="690" stroke="rgba(92, 161, 235, 1)"></use><use xlink:href="#SvgjsPath1606" x="150" y="30" stroke="rgba(92, 161, 235, 1)"></use><use xlink:href="#SvgjsPath1605" x="150" y="90" stroke="rgba(92, 161, 235, 1)"></use><use xlink:href="#SvgjsPath1605" x="150" y="150" stroke="rgba(92, 161, 235, 1)"></use><use xlink:href="#SvgjsPath1606" x="150" y="210" stroke="rgba(92, 161, 235, 1)"></use><use xlink:href="#SvgjsPath1605" x="150" y="270" stroke="rgba(92, 161, 235, 1)"></use><use xlink:href="#SvgjsPath1606" x="150" y="330" stroke="rgba(92, 161, 235, 1)"></use><use xlink:href="#SvgjsPath1609" x="150" y="390" stroke="rgba(92, 161, 235, 1)"></use><use xlink:href="#SvgjsPath1608" x="150" y="450" stroke="rgba(92, 161, 235, 1)"></use><use xlink:href="#SvgjsPath1606" x="150" y="510" stroke="rgba(92, 161, 235, 1)"></use><use xlink:href="#SvgjsPath1607" x="150" y="570" stroke="rgba(92, 161, 235, 1)"></use><use xlink:href="#SvgjsPath1609" x="150" y="630" stroke="rgba(92, 161, 235, 1)"></use><use xlink:href="#SvgjsPath1605" x="150" y="690" stroke="rgba(92, 161, 235, 1)"></use><use xlink:href="#SvgjsPath1609" x="210" y="30" stroke="rgba(92, 161, 235, 1)"></use><use xlink:href="#SvgjsPath1605" x="210" y="90" stroke="rgba(92, 161, 235, 1)"></use><use xlink:href="#SvgjsPath1606" x="210" y="150" stroke="rgba(92, 161, 235, 1)"></use><use xlink:href="#SvgjsPath1606" x="210" y="210" stroke="rgba(92, 161, 235, 1)"></use><use xlink:href="#SvgjsPath1606" x="210" y="270" stroke="rgba(92, 161, 235, 1)"></use><use xlink:href="#SvgjsPath1605" x="210" y="330" stroke="rgba(92, 161, 235, 1)"></use><use xlink:href="#SvgjsPath1606" x="210" y="390" stroke="rgba(92, 161, 235, 1)"></use><use xlink:href="#SvgjsPath1606" x="210" y="450" stroke="rgba(92, 161, 235, 1)"></use><use xlink:href="#SvgjsPath1610" x="210" y="510" stroke="rgba(92, 161, 235, 1)" stroke-width="3"></use><use xlink:href="#SvgjsPath1609" x="210" y="570" stroke="rgba(92, 161, 235, 1)"></use><use xlink:href="#SvgjsPath1607" x="210" y="630" stroke="rgba(92, 161, 235, 1)"></use><use xlink:href="#SvgjsPath1609" x="210" y="690" stroke="rgba(92, 161, 235, 1)"></use><use xlink:href="#SvgjsPath1606" x="270" y="30" stroke="rgba(92, 161, 235, 1)"></use><use xlink:href="#SvgjsPath1607" x="270" y="90" stroke="rgba(92, 161, 235, 1)"></use><use xlink:href="#SvgjsPath1608" x="270" y="150" stroke="rgba(92, 161, 235, 1)"></use><use xlink:href="#SvgjsPath1607" x="270" y="210" stroke="rgba(92, 161, 235, 1)"></use><use xlink:href="#SvgjsPath1606" x="270" y="270" stroke="rgba(92, 161, 235, 1)"></use><use xlink:href="#SvgjsPath1606" x="270" y="330" stroke="rgba(92, 161, 235, 1)"></use><use xlink:href="#SvgjsPath1608" x="270" y="390" stroke="rgba(92, 161, 235, 1)"></use><use xlink:href="#SvgjsPath1606" x="270" y="450" stroke="rgba(92, 161, 235, 1)"></use><use xlink:href="#SvgjsPath1606" x="270" y="510" stroke="rgba(92, 161, 235, 1)"></use><use xlink:href="#SvgjsPath1608" x="270" y="570" stroke="rgba(92, 161, 235, 1)"></use><use xlink:href="#SvgjsPath1606" x="270" y="630" stroke="rgba(92, 161, 235, 1)"></use><use xlink:href="#SvgjsPath1608" x="270" y="690" stroke="rgba(92, 161, 235, 1)"></use><use xlink:href="#SvgjsPath1606" x="330" y="30" stroke="rgba(92, 161, 235, 1)"></use><use xlink:href="#SvgjsPath1609" x="330" y="90" stroke="rgba(92, 161, 235, 1)"></use><use xlink:href="#SvgjsPath1607" x="330" y="150" stroke="rgba(92, 161, 235, 1)"></use><use xlink:href="#SvgjsPath1610" x="330" y="210" stroke="rgba(92, 161, 235, 1)" stroke-width="3"></use><use xlink:href="#SvgjsPath1606" x="330" y="270" stroke="rgba(92, 161, 235, 1)"></use><use xlink:href="#SvgjsPath1608" x="330" y="330" stroke="rgba(92, 161, 235, 1)"></use><use xlink:href="#SvgjsPath1608" x="330" y="390" stroke="rgba(92, 161, 235, 1)"></use><use xlink:href="#SvgjsPath1606" x="330" y="450" stroke="rgba(92, 161, 235, 1)"></use><use xlink:href="#SvgjsPath1609" x="330" y="510" stroke="rgba(92, 161, 235, 1)"></use><use xlink:href="#SvgjsPath1607" x="330" y="570" stroke="rgba(92, 161, 235, 1)"></use><use xlink:href="#SvgjsPath1605" x="330" y="630" stroke="rgba(92, 161, 235, 1)"></use><use xlink:href="#SvgjsPath1606" x="330" y="690" stroke="rgba(92, 161, 235, 1)"></use><use xlink:href="#SvgjsPath1605" x="390" y="30" stroke="rgba(92, 161, 235, 1)"></use><use xlink:href="#SvgjsPath1608" x="390" y="90" stroke="rgba(92, 161, 235, 1)"></use><use xlink:href="#SvgjsPath1609" x="390" y="150" stroke="rgba(92, 161, 235, 1)"></use><use xlink:href="#SvgjsPath1605" x="390" y="210" stroke="rgba(92, 161, 235, 1)"></use><use xlink:href="#SvgjsPath1605" x="390" y="270" stroke="rgba(92, 161, 235, 1)"></use><use xlink:href="#SvgjsPath1608" x="390" y="330" stroke="rgba(92, 161, 235, 1)"></use><use xlink:href="#SvgjsPath1609" x="390" y="390" stroke="rgba(92, 161, 235, 1)"></use><use xlink:href="#SvgjsPath1605" x="390" y="450" stroke="rgba(92, 161, 235, 1)"></use><use xlink:href="#SvgjsPath1606" x="390" y="510" stroke="rgba(92, 161, 235, 1)"></use><use xlink:href="#SvgjsPath1608" x="390" y="570" stroke="rgba(92, 161, 235, 1)"></use><use xlink:href="#SvgjsPath1609" x="390" y="630" stroke="rgba(92, 161, 235, 1)"></use><use xlink:href="#SvgjsPath1605" x="390" y="690" stroke="rgba(92, 161, 235, 1)"></use><use xlink:href="#SvgjsPath1606" x="450" y="30" stroke="rgba(92, 161, 235, 1)"></use><use xlink:href="#SvgjsPath1608" x="450" y="90" stroke="rgba(92, 161, 235, 1)"></use><use xlink:href="#SvgjsPath1606" x="450" y="150" stroke="rgba(92, 161, 235, 1)"></use><use xlink:href="#SvgjsPath1610" x="450" y="210" stroke="rgba(92, 161, 235, 1)" stroke-width="3"></use><use xlink:href="#SvgjsPath1609" x="450" y="270" stroke="rgba(92, 161, 235, 1)"></use><use xlink:href="#SvgjsPath1607" x="450" y="330" stroke="rgba(92, 161, 235, 1)"></use><use xlink:href="#SvgjsPath1610" x="450" y="390" stroke="rgba(92, 161, 235, 1)" stroke-width="3"></use><use xlink:href="#SvgjsPath1606" x="450" y="450" stroke="rgba(92, 161, 235, 1)"></use><use xlink:href="#SvgjsPath1608" x="450" y="510" stroke="rgba(92, 161, 235, 1)"></use><use xlink:href="#SvgjsPath1605" x="450" y="570" stroke="rgba(92, 161, 235, 1)"></use><use xlink:href="#SvgjsPath1609" x="450" y="630" stroke="rgba(92, 161, 235, 1)"></use><use xlink:href="#SvgjsPath1605" x="450" y="690" stroke="rgba(92, 161, 235, 1)"></use><use xlink:href="#SvgjsPath1608" x="510" y="30" stroke="rgba(92, 161, 235, 1)"></use><use xlink:href="#SvgjsPath1607" x="510" y="90" stroke="rgba(92, 161, 235, 1)"></use><use xlink:href="#SvgjsPath1606" x="510" y="150" stroke="rgba(92, 161, 235, 1)"></use><use xlink:href="#SvgjsPath1605" x="510" y="210" stroke="rgba(92, 161, 235, 1)"></use><use xlink:href="#SvgjsPath1608" x="510" y="270" stroke="rgba(92, 161, 235, 1)"></use><use xlink:href="#SvgjsPath1608" x="510" y="330" stroke="rgba(92, 161, 235, 1)"></use><use xlink:href="#SvgjsPath1609" x="510" y="390" stroke="rgba(92, 161, 235, 1)"></use><use xlink:href="#SvgjsPath1606" x="510" y="450" stroke="rgba(92, 161, 235, 1)"></use><use xlink:href="#SvgjsPath1607" x="510" y="510" stroke="rgba(92, 161, 235, 1)"></use><use xlink:href="#SvgjsPath1608" x="510" y="570" stroke="rgba(92, 161, 235, 1)"></use><use xlink:href="#SvgjsPath1605" x="510" y="630" stroke="rgba(92, 161, 235, 1)"></use><use xlink:href="#SvgjsPath1606" x="510" y="690" stroke="rgba(92, 161, 235, 1)"></use><use xlink:href="#SvgjsPath1609" x="570" y="30" stroke="rgba(92, 161, 235, 1)"></use><use xlink:href="#SvgjsPath1605" x="570" y="90" stroke="rgba(92, 161, 235, 1)"></use><use xlink:href="#SvgjsPath1609" x="570" y="150" stroke="rgba(92, 161, 235, 1)"></use><use xlink:href="#SvgjsPath1606" x="570" y="210" stroke="rgba(92, 161, 235, 1)"></use><use xlink:href="#SvgjsPath1609" x="570" y="270" stroke="rgba(92, 161, 235, 1)"></use><use xlink:href="#SvgjsPath1605" x="570" y="330" stroke="rgba(92, 161, 235, 1)"></use><use xlink:href="#SvgjsPath1606" x="570" y="390" stroke="rgba(92, 161, 235, 1)"></use><use xlink:href="#SvgjsPath1606" x="570" y="450" stroke="rgba(92, 161, 235, 1)"></use><use xlink:href="#SvgjsPath1606" x="570" y="510" stroke="rgba(92, 161, 235, 1)"></use><use xlink:href="#SvgjsPath1606" x="570" y="570" stroke="rgba(92, 161, 235, 1)"></use><use xlink:href="#SvgjsPath1608" x="570" y="630" stroke="rgba(92, 161, 235, 1)"></use><use xlink:href="#SvgjsPath1606" x="570" y="690" stroke="rgba(92, 161, 235, 1)"></use><use xlink:href="#SvgjsPath1607" x="630" y="30" stroke="rgba(92, 161, 235, 1)"></use><use xlink:href="#SvgjsPath1606" x="630" y="90" stroke="rgba(92, 161, 235, 1)"></use><use xlink:href="#SvgjsPath1609" x="630" y="150" stroke="rgba(92, 161, 235, 1)"></use><use xlink:href="#SvgjsPath1609" x="630" y="210" stroke="rgba(92, 161, 235, 1)"></use><use xlink:href="#SvgjsPath1605" x="630" y="270" stroke="rgba(92, 161, 235, 1)"></use><use xlink:href="#SvgjsPath1606" x="630" y="330" stroke="rgba(92, 161, 235, 1)"></use><use xlink:href="#SvgjsPath1606" x="630" y="390" stroke="rgba(92, 161, 235, 1)"></use><use xlink:href="#SvgjsPath1606" x="630" y="450" stroke="rgba(92, 161, 235, 1)"></use><use xlink:href="#SvgjsPath1605" x="630" y="510" stroke="rgba(92, 161, 235, 1)"></use><use xlink:href="#SvgjsPath1609" x="630" y="570" stroke="rgba(92, 161, 235, 1)"></use><use xlink:href="#SvgjsPath1609" x="630" y="630" stroke="rgba(92, 161, 235, 1)"></use><use xlink:href="#SvgjsPath1606" x="630" y="690" stroke="rgba(92, 161, 235, 1)"></use><use xlink:href="#SvgjsPath1605" x="690" y="30" stroke="rgba(92, 161, 235, 1)"></use><use xlink:href="#SvgjsPath1605" x="690" y="90" stroke="rgba(92, 161, 235, 1)"></use><use xlink:href="#SvgjsPath1608" x="690" y="150" stroke="rgba(92, 161, 235, 1)"></use><use xlink:href="#SvgjsPath1605" x="690" y="210" stroke="rgba(92, 161, 235, 1)"></use><use xlink:href="#SvgjsPath1607" x="690" y="270" stroke="rgba(92, 161, 235, 1)"></use><use xlink:href="#SvgjsPath1605" x="690" y="330" stroke="rgba(92, 161, 235, 1)"></use><use xlink:href="#SvgjsPath1608" x="690" y="390" stroke="rgba(92, 161, 235, 1)"></use><use xlink:href="#SvgjsPath1606" x="690" y="450" stroke="rgba(92, 161, 235, 1)"></use><use xlink:href="#SvgjsPath1606" x="690" y="510" stroke="rgba(92, 161, 235, 1)"></use><use xlink:href="#SvgjsPath1608" x="690" y="570" stroke="rgba(92, 161, 235, 1)"></use><use xlink:href="#SvgjsPath1605" x="690" y="630" stroke="rgba(92, 161, 235, 1)"></use><use xlink:href="#SvgjsPath1606" x="690" y="690" stroke="rgba(92, 161, 235, 1)"></use></symbol></svg>